<svg width="138" height="138" viewBox="0 0 138 138" fill="none" xmlns="http://www.w3.org/2000/svg">
<path d="M31.7058 52.7369C31.7058 52.7369 -1.60218 61.4862 2.29711 76.5573C5.17332 87.6616 33.6748 80.5 33.6748 80.5C33.6748 80.5 11.5386 108.118 22.5464 117.973C33.5541 127.827 52.0758 103.167 52.0758 103.167C52.0758 103.167 52.4039 136.518 65.8777 133.56C79.3515 130.602 84.0904 99.1857 84.935 93.2403C85.2631 90.9287 107.949 125.236 120.912 114.339C131.466 105.469 111.878 76.0602 111.878 76.0602C111.878 76.0602 134.178 80.2828 135.862 69.6515C138 56.1826 106.005 50.7197 105.348 50.8838C104.692 51.0478 124.362 36.469 118.286 28.7476C112.206 21.0262 80.8282 32.8544 80.8282 32.8544C80.8282 32.8544 90.3544 7.72136 81.8126 3.45049C73.2709 -0.820391 60.8685 28.0913 60.8685 28.0913C60.8685 28.0913 54.952 2.98238 47.1486 5.25535C38.4476 7.78893 45.3437 33.6748 45.3437 33.6748C45.3437 33.6748 18.8932 21.6825 14.4583 29.8961C10.0233 38.1097 31.7058 52.7369 31.7058 52.7369Z" fill="#F4A706"/>
<path d="M48.3695 66.8622C47.0183 65.0042 44.0986 57.8957 47.4236 57.8282C51.4484 57.7461 53.3884 70.1293 65.3324 69.4923C79.9113 68.7105 82.0877 54.2136 84.8819 53.3932C87.6761 52.5728 88.5881 56.9499 84.8819 64.0728C81.7596 70.0714 75.2302 75.8624 65.4965 75.8624C55.6372 75.8576 51.7138 71.4612 48.3695 66.8622Z" fill="white"/>
<path d="M77.1605 43.0417C75.6838 44.6825 75.7948 48.133 77.9809 49.2864C81.7547 51.2698 84.3897 47.3126 83.4004 44.3592C82.4111 41.4058 78.7868 41.2369 77.1605 43.0417Z" fill="white"/>
<path d="M48.6204 45.5994C47.1437 47.2402 47.2547 50.6907 49.4408 51.8441C53.2146 53.8275 55.8495 49.8703 54.8602 46.9169C53.8806 43.9587 50.2467 43.7946 48.6204 45.5994Z" fill="white"/>
</svg>
